<svg xmlns="http://www.w3.org/2000/svg" viewBox="0 0 18.71 17.46"><defs><style>.cls-1{fill:none;stroke:#8d6858;stroke-linecap:round;stroke-linejoin:round;}</style></defs><title>Ресурс 78</title><g id="Слой_2" data-name="Слой 2"><g id="Слой_2-2" data-name="Слой 2"><path class="cls-1" d="M10,13.07h0A20,20,0,0,1,4.39,7.44h0a.73.73,0,0,1,.16-1l1.26-1a1.35,1.35,0,0,0,.35-1.73L4.67,1.15A1.27,1.27,0,0,0,3.22.55h0A3.4,3.4,0,0,0,.94,2.65h0a7,7,0,0,0,.9,6.56l.88,1.2a19.81,19.81,0,0,0,4.33,4.34l1.2.87a7,7,0,0,0,6.56.9h0a3.38,3.38,0,0,0,2.1-2.28h0a1.26,1.26,0,0,0-.6-1.45L13.68,11.3a1.33,1.33,0,0,0-1.72.35l-1,1.26A.72.72,0,0,1,10,13.07Z"/><path class="cls-1" d="M9.81,7.11a5,5,0,0,1,8.4,3.55"/><polyline class="cls-1" points="10.63 4.64 9.81 7.11 12.28 7.11"/></g></g></svg>